<mxfile host="app.diagrams.net" modified="2023-06-09T04:29:21.278Z" agent="Mozilla/5.0 (Macintosh; Intel Mac OS X 10_15_7) AppleWebKit/537.36 (KHTML, like Gecko) Chrome/113.0.0.0 Safari/537.36" version="21.3.8" etag="oHvBvP0YjOf9J9wGMPZ3" type="github">
  <diagram name="Page-1" id="uLs5ncvLsN1x2rJPQONd">
    <mxGraphModel>
      <root>
        <mxCell id="0" />
        <mxCell id="1" parent="0" />
      </root>
    </mxGraphModel>
  </diagram>
</mxfile>
